HIERARCHY
ROOT Hips
{
 OFFSET 0.000000 0.000000 0.000000
 CHANNELS 6 Xposition Yposition Zposition Yrotation Xrotation Zrotation
 JOINT Chest
 {
  OFFSET 0.000000 9.585900 0.002600
  CHANNELS 3 Yrotation Xrotation Zrotation
  JOINT Chest2
  {
   OFFSET 0.000000 9.601200 -0.005300
   CHANNELS 3 Yrotation Xrotation Zrotation
   JOINT Chest3
   {
    OFFSET 0.000000 9.561800 0.000000
    CHANNELS 3 Yrotation Xrotation Zrotation
    JOINT Chest4
    {
     OFFSET 0.000000 9.552100 0.000000
     CHANNELS 3 Yrotation Xrotation Zrotation
     JOINT Neck
     {
      OFFSET 0.000000 14.453000 0.000000
      CHANNELS 3 Yrotation Xrotation Zrotation
      JOINT Head
      {
       OFFSET 0.000000 8.936500 -0.011300
       CHANNELS 3 Yrotation Xrotation Zrotation
       End Site
       {
        OFFSET 0.000000 17.073600 -0.006000
       }
      }
     }
     JOINT RightCollar
     {
      OFFSET -2.921100 9.558500 0.000000
      CHANNELS 3 Yrotation Xrotation Zrotation
      JOINT RightShoulder
      {
       OFFSET -13.519700 0.000000 0.000000
       CHANNELS 3 Yrotation Xrotation Zrotation
       JOINT RightElbow
       {
        OFFSET 0.000000 -29.696600 0.000000
        CHANNELS 3 Yrotation Xrotation Zrotation
        JOINT RightWrist
        {
         OFFSET 0.000000 -24.004700 0.000000
         CHANNELS 3 Yrotation Xrotation Zrotation
         End Site
         {
          OFFSET 0.000000 -17.728500 0.000000
         }
        }
       }
      }
     }
     JOINT LeftCollar
     {
      OFFSET 2.921100 9.558500 0.000000
      CHANNELS 3 Yrotation Xrotation Zrotation
      JOINT LeftShoulder
      {
       OFFSET 13.519700 0.000000 0.000000
       CHANNELS 3 Yrotation Xrotation Zrotation
       JOINT LeftElbow
       {
        OFFSET 0.000000 -29.696600 0.000000
        CHANNELS 3 Yrotation Xrotation Zrotation
        JOINT LeftWrist
        {
         OFFSET 0.000000 -24.004700 0.000000
         CHANNELS 3 Yrotation Xrotation Zrotation
         End Site
         {
          OFFSET 0.000000 -17.728500 0.000000
         }
        }
       }
      }
     }
    }
   }
  }
 }
 JOINT RightHip
 {
  OFFSET -7.771700 -0.012900 -0.001300
  CHANNELS 3 Yrotation Xrotation Zrotation
  JOINT RightKnee
  {
   OFFSET 0.000000 -40.869800 0.001200
   CHANNELS 3 Yrotation Xrotation Zrotation
   JOINT RightAnkle
   {
    OFFSET 0.000000 -39.717900 0.002100
    CHANNELS 3 Yrotation Xrotation Zrotation
    JOINT RightToe
    {
     OFFSET 0.000000 -4.965400 11.033500
     CHANNELS 3 Yrotation Xrotation Zrotation
     End Site
     {
      OFFSET 0.000000 -1.423100 5.872300
     }
    }
   }
  }
 }
 JOINT LeftHip
 {
  OFFSET 7.771700 -0.012900 -0.001300
  CHANNELS 3 Yrotation Xrotation Zrotation
  JOINT LeftKnee
  {
   OFFSET 0.000000 -40.869800 0.001200
   CHANNELS 3 Yrotation Xrotation Zrotation
   JOINT LeftAnkle
   {
    OFFSET 0.000000 -39.717900 0.002100
    CHANNELS 3 Yrotation Xrotation Zrotation
    JOINT LeftToe
    {
     OFFSET 0.000000 -4.965400 11.033500
     CHANNELS 3 Yrotation Xrotation Zrotation
     End Site
     {
      OFFSET 0.000000 -1.423100 5.872300
     }
    }
   }
  }
 }
}
MOTION
Frames: 15
Frame Time: 0.008333
-13.929792 58.255668 56.222001 179.673523 -28.373703 -0.993459 3.112602 17.606057 3.508908 0.303932 2.024901 0.273905 0.533003 3.352793 0.453196 2.744486 15.611500 2.444781 -1.999885 8.198044 -2.179083 -2.898722 -20.583128 -3.308331 3.402114 -2.534942 -0.901834 8.610355 -16.845376 -17.400841 133.202596 -63.513383 -101.422070 17.616463 -17.804378 -48.852539 -5.232323 -1.238735 -1.751217 16.760640 -9.635746 -5.726570 -120.792860 -52.824302 120.138337 -15.255877 -15.311378 39.990492 10.016745 -42.821307 -3.608989 -2.360256 67.487182 -4.961806 3.383063 6.375752 8.730158 -0.022529 0.137698 -0.004450 -7.349721 -48.501916 2.001581 27.537564 68.322850 27.093998 -12.371008 22.499402 -2.436386 -0.006087 -13.333813 -2.221533
-13.915495 58.245032 56.237014 179.696811 -28.359441 -1.066962 3.116690 17.588800 3.573818 0.310948 2.024185 0.272051 0.526891 3.352973 0.454856 2.746964 15.611904 2.441277 -2.012314 8.197951 -2.177985 -2.941476 -20.582878 -3.318201 3.397479 -2.538318 -0.896530 8.607633 -16.838051 -17.401224 133.230881 -63.525727 -101.413906 17.611687 -17.816548 -48.847900 -5.226326 -1.234335 -1.744219 16.796110 -9.636768 -5.722988 -120.805542 -52.786778 120.145227 -15.256726 -15.305967 39.985567 9.953407 -42.844049 -3.520472 -2.394713 67.465846 -4.988002 3.379431 6.395987 8.727446 -0.025221 0.137256 -0.005171 -7.448960 -48.557848 2.107409 27.558337 68.341246 27.113485 -12.321585 22.643277 -2.396311 -0.051695 -13.426015 -2.244782
-13.913451 58.234227 56.251365 179.712614 -28.348929 -1.067439 3.104255 17.579543 3.565978 0.315277 2.024880 0.270772 0.527695 3.352484 0.454805 2.750917 15.610815 2.440987 -2.052089 8.192743 -2.198580 -2.970623 -20.578195 -3.309953 3.395420 -2.540671 -0.899418 8.595690 -16.832576 -17.394810 133.276947 -63.571294 -101.384255 17.654209 -17.808753 -48.886999 -5.223956 -1.229832 -1.736920 16.808650 -9.638231 -5.721437 -120.790720 -52.740541 120.146716 -15.309362 -15.292852 40.004684 9.959245 -42.861693 -3.534586 -2.406123 67.467134 -4.997881 3.376509 6.401393 8.732824 -0.026308 0.139536 -0.005890 -7.453000 -48.595491 2.098743 27.540103 68.338351 27.095820 -12.304178 22.716347 -2.383501 -0.058384 -13.444264 -2.253064
-13.914970 58.223711 56.264515 179.723722 -28.346381 -1.048055 3.090377 17.575680 3.540534 0.315327 2.023852 0.270365 0.527542 3.350997 0.454067 2.755794 15.600983 2.435686 -2.071441 8.203100 -2.198816 -3.012083 -20.574765 -3.317311 3.413163 -2.525088 -0.911930 8.559115 -16.813319 -17.390884 133.353555 -63.600337 -101.429656 17.687879 -17.801551 -48.915164 -5.218512 -1.211305 -1.727347 16.817879 -9.639023 -5.718748 -120.785272 -52.707212 120.148809 -15.336930 -15.292685 40.015929 9.977353 -42.870712 -3.570312 -2.408370 67.474270 -5.003877 3.378908 6.400813 8.739973 -0.026846 0.142894 -0.007697 -7.432663 -48.616420 2.062524 27.509554 68.325318 27.062095 -12.292077 22.770024 -2.374583 -0.057317 -13.415799 -2.258701
-13.917111 58.213476 56.276576 179.728513 -28.350973 -1.024739 3.094460 17.573429 3.515735 0.315568 2.022360 0.270164 0.528096 3.348684 0.453868 2.742548 15.609282 2.440743 -2.076994 8.203801 -2.200715 -3.059726 -20.574542 -3.331073 3.415700 -2.522119 -0.914419 8.553761 -16.802521 -17.398488 133.401478 -63.632710 -101.438455 17.654572 -17.836186 -48.894633 -5.207356 -1.207949 -1.723620 16.821738 -9.637199 -5.715166 -120.797423 -52.701309 120.155430 -15.375303 -15.296122 40.029389 10.010575 -42.872562 -3.610680 -2.428657 67.482970 -5.018959 3.370886 6.399944 8.739840 -0.030008 0.146105 -0.006743 -7.404206 -48.632572 2.023797 27.484320 68.313534 27.031660 -12.284456 22.838781 -2.354487 -0.062715 -13.424952 -2.271585
-13.915027 58.201845 56.290887 179.749318 -28.339689 -1.035782 3.080048 17.561026 3.516582 0.321064 2.021055 0.269977 0.528388 3.347300 0.454022 2.746864 15.606321 2.439508 -2.100547 8.205594 -2.208032 -3.077880 -20.570518 -3.326801 3.403989 -2.517023 -0.909666 8.556618 -16.789941 -17.405266 133.432303 -63.666176 -101.433372 17.666967 -17.845350 -48.915572 -5.209108 -1.200664 -1.711443 16.822549 -9.632116 -5.713883 -120.776252 -52.657569 120.159873 -15.366813 -15.303045 40.020028 10.004546 -42.890584 -3.615702 -2.455338 67.482688 -5.038688 3.370246 6.402238 8.738874 -0.027363 0.151467 -0.005311 -7.418422 -48.676201 2.030384 27.477088 68.316253 27.021322 -12.278572 22.919094 -2.333183 -0.071574 -13.445070 -2.283503
-13.912547 58.189895 56.305347 179.769086 -28.326223 -1.048564 3.065798 17.546996 3.519119 0.331250 2.020550 0.271742 0.528510 3.345896 0.454596 2.740579 15.601567 2.438462 -2.122508 8.207698 -2.217963 -3.090966 -20.566429 -3.325735 3.406275 -2.511007 -0.911666 8.554691 -16.780566 -17.406096 133.441076 -63.682658 -101.430767 17.668666 -17.853875 -48.918195 -5.210288 -1.193252 -1.705706 16.825645 -9.627753 -5.709992 -120.735461 -52.569862 120.155712 -15.314800 -15.295400 40.000352 9.994167 -42.911407 -3.615371 -2.481607 67.481841 -5.060797 3.371795 6.405459 8.735979 -0.025923 0.155158 -0.003015 -7.439898 -48.721595 2.046297 27.486479 68.316198 27.023189 -12.281679 22.998406 -2.316861 -0.078216 -13.477404 -2.291910
-13.900498 58.178694 56.318467 179.785269 -28.320995 -1.115280 3.087349 17.537307 3.586975 0.327255 2.021183 0.273537 0.528436 3.344915 0.455594 2.744587 15.595380 2.438508 -2.159756 8.208425 -2.238471 -3.165436 -20.563476 -3.346280 3.401202 -2.501793 -0.915238 8.544826 -16.781116 -17.402758 133.448262 -63.733542 -101.382145 17.686331 -17.877676 -48.934146 -5.222054 -1.187062 -1.702012 16.823874 -9.625616 -5.708406 -120.725577 -52.540602 120.152870 -15.331586 -15.286601 40.001303 9.934866 -42.926500 -3.531726 -2.504748 67.466471 -5.075630 3.369510 6.422605 8.731423 -0.030458 0.152021 -0.005885 -7.507012 -48.770568 2.148849 27.481293 68.354266 27.021582 -12.287975 23.078081 -2.307803 -0.075063 -13.524739 -2.297075
-13.899680 58.168941 56.328157 179.783603 -28.336069 -1.103803 3.098696 17.553534 3.581848 0.324332 2.019836 0.276897 0.528065 3.344096 0.456528 2.749070 15.594971 2.442049 -2.180969 8.208457 -2.247527 -3.223602 -20.563756 -3.375862 3.398757 -2.503062 -0.925610 8.544518 -16.766927 -17.404250 133.454755 -63.784843 -101.344377 17.702271 -17.898399 -48.953914 -5.215623 -1.190110 -1.697009 16.808264 -9.619664 -5.712969 -120.725994 -52.534398 120.152696 -15.357131 -15.280561 40.001611 9.947680 -42.918939 -3.539283 -2.497460 67.473329 -5.075180 3.361041 6.424676 8.737111 -0.031546 0.152282 -0.005930 -7.489146 -48.768532 2.132328 27.479402 68.345527 27.017359 -12.286517 23.091927 -2.296555 -0.066284 -13.465724 -2.308861
-13.894963 58.157266 56.341457 179.811771 -28.323636 -1.126975 3.086585 17.541276 3.599636 0.321271 2.019103 0.277232 0.527515 3.343159 0.456966 2.755036 15.589484 2.454469 -2.203480 8.212755 -2.265953 -3.267918 -20.565280 -3.400508 3.387389 -2.502074 -0.942995 8.569968 -16.736667 -17.409842 133.451740 -63.819599 -101.327684 17.648868 -17.935824 -48.903076 -5.219533 -1.188674 -1.707027 16.805363 -9.614212 -5.710733 -120.712774 -52.502798 120.147161 -15.327160 -15.274910 39.992722 9.921042 -42.938789 -3.523035 -2.504001 67.473852 -5.086402 3.356194 6.431595 8.741825 -0.030601 0.151688 -0.007066 -7.519164 -48.807409 2.161225 27.501321 68.338178 27.036308 -12.332966 23.152242 -2.304495 -0.043032 -13.463127 -2.310494
-13.890028 58.145965 56.353962 179.827879 -28.313545 -1.143064 3.087491 17.532158 3.621962 0.314834 2.018169 0.272007 0.526975 3.342034 0.456945 2.753054 15.587340 2.454378 -2.224737 8.212235 -2.278751 -3.306567 -20.566431 -3.420038 3.393128 -2.502309 -0.949715 8.567479 -16.727996 -17.409007 133.446899 -63.862801 -101.281063 17.626336 -17.957511 -48.863325 -5.217608 -1.190484 -1.704251 16.808362 -9.612542 -5.694878 -120.712260 -52.497305 120.141504 -15.334055 -15.254360 39.978812 9.906741 -42.957064 -3.511160 -2.518938 67.474542 -5.101861 3.359569 6.438858 8.742203 -0.030632 0.151295 -0.005928 -7.535830 -48.844279 2.184128 27.512819 68.337966 27.046375 -12.356722 23.204813 -2.302770 -0.028400 -13.447147 -2.315748
-13.888707 58.132777 56.369759 179.869111 -28.276763 -1.147668 3.051958 17.497699 3.611174 0.314486 2.017647 0.271930 0.526501 3.341142 0.456802 2.748489 15.586613 2.451743 -2.245718 8.210846 -2.291228 -3.344037 -20.570371 -3.438108 3.400893 -2.499741 -0.956851 8.565997 -16.724623 -17.406464 133.431687 -63.906656 -101.222335 17.626387 -17.971826 -48.838160 -5.216779 -1.191618 -1.701341 16.803913 -9.615730 -5.685722 -120.690143 -52.489589 120.120222 -15.335476 -15.236749 39.951833 9.893886 -43.000296 -3.533556 -2.520247 67.481613 -5.114690 3.354104 6.441424 8.752500 -0.030538 0.153244 -0.007072 -7.559293 -48.907603 2.183436 27.520443 68.315167 27.044788 -12.403385 23.290191 -2.313960 -0.005497 -13.452122 -2.313939
-13.880973 58.124401 56.376871 179.855900 -28.296687 -1.164007 3.077753 17.515971 3.643329 0.314255 2.017331 0.271983 0.526163 3.340683 0.456827 2.744385 15.586277 2.447667 -2.283418 8.204181 -2.315667 -3.355098 -20.569419 -3.439732 3.401116 -2.499089 -0.958588 8.580730 -16.713029 -17.414142 133.410149 -63.945931 -101.165998 17.627477 -17.985381 -48.817264 -5.214978 -1.192729 -1.696381 16.794627 -9.618853 -5.673638 -120.662576 -52.481895 120.059415 -15.336046 -15.186861 39.924500 9.884109 -42.987806 -3.490696 -2.529784 67.478401 -5.127983 3.359384 6.447239 8.752894 -0.028233 0.155578 -0.008676 -7.571761 -48.910989 2.229065 27.516536 68.334266 27.037306 -12.403212 23.323791 -2.303906 -0.000978 -13.439036 -2.323464
-13.876388 58.115291 56.385211 179.856097 -28.304116 -1.168447 3.086679 17.522777 3.656015 0.309804 2.017179 0.269523 0.526055 3.340511 0.456902 2.744037 15.585309 2.450936 -2.299391 8.201560 -2.329413 -3.358103 -20.568354 -3.440417 3.424477 -2.501826 -0.971123 8.573747 -16.695788 -17.419425 133.385013 -63.981390 -101.105742 17.626157 -17.996392 -48.806645 -5.193566 -1.197277 -1.690859 16.763541 -9.615734 -5.664004 -120.651531 -52.496087 120.039755 -15.329811 -15.167104 39.890311 9.881176 -42.987431 -3.478295 -2.527792 67.482296 -5.130511 3.361051 6.451207 8.749300 -0.032704 0.154937 -0.003786 -7.582424 -48.933541 2.251934 27.518814 68.338581 27.031451 -12.422655 23.422921 -2.293953 0.008049 -13.474283 -2.337723
-13.878760 58.103179 56.398873 179.889592 -28.270846 -1.148744 3.054510 17.491287 3.623837 0.303190 2.017460 0.268163 0.534752 3.338465 0.459102 2.740933 15.585540 2.453579 -2.313123 8.201554 -2.336434 -3.408377 -20.579467 -3.465684 3.430761 -2.503379 -0.979806 8.573105 -16.676776 -17.431574 133.377492 -64.019914 -101.054261 17.624788 -18.006214 -48.805467 -5.198978 -1.197152 -1.694024 16.748179 -9.620393 -5.647173 -120.642095 -52.511521 120.036401 -15.309982 -15.149205 39.818160 9.891347 -43.025859 -3.530387 -2.544972 67.495819 -5.159341 3.365783 6.447762 8.757920 -0.034057 0.156717 -0.001941 -7.584982 -48.995126 2.220291 27.511573 68.315703 27.006117 -12.440750 23.537604 -2.275067 0.011960 -13.504391 -2.352977
